<?xml version="1.0" encoding="UTF-8" standalone="no"?>
<svg
   width="1024"
   height="1024"
   viewBox="0 0 1024 1024"
   version="1.1"
   id="svg2"
   sodipodi:docname="idk.svg"
   xml:space="preserve"
   inkscape:version="1.3.2 (091e20e, 2023-11-25, custom)"
   xmlns:inkscape="http://www.inkscape.org/namespaces/inkscape"
   xmlns:sodipodi="http://sodipodi.sourceforge.net/DTD/sodipodi-0.dtd"
   xmlns="http://www.w3.org/2000/svg"
   xmlns:svg="http://www.w3.org/2000/svg"><defs
     id="defs2" /><sodipodi:namedview
     id="namedview2"
     pagecolor="#ffffff"
     bordercolor="#000000"
     borderopacity="0.25"
     inkscape:showpageshadow="2"
     inkscape:pageopacity="0.0"
     inkscape:pagecheckerboard="0"
     inkscape:deskcolor="#d1d1d1"
     inkscape:zoom="1.1455078"
     inkscape:cx="511.56351"
     inkscape:cy="512"
     inkscape:window-width="2560"
     inkscape:window-height="1369"
     inkscape:window-x="1912"
     inkscape:window-y="515"
     inkscape:window-maximized="1"
     inkscape:current-layer="svg2" /><path
     d="M 41.267,18.557 H 26.832 V 4.134 C 26.832,1.851 24.99,0 22.707,0 20.424,0 18.583,1.851 18.583,4.135 V 18.567 H 4.141 c -2.283,0 -4.139,1.851 -4.138,4.135 -0.001,1.141 0.46,2.187 1.207,2.934 0.748,0.749 1.78,1.222 2.92,1.222 H 18.583 V 41.27 c 0,1.142 0.453,2.176 1.201,2.922 0.748,0.748 1.777,1.211 2.919,1.211 2.282,0 4.129,-1.851 4.129,-4.133 V 26.857 h 14.435 c 2.283,0 4.134,-1.867 4.133,-4.15 -10e-4,-2.282 -1.852,-4.15 -4.133,-4.15 z"
     id="path1-5"
     style="fill:#000000"
     transform="matrix(6.8531035,0,0,6.8531035,676.33743,26.876111)" /><path
     d="m 114.35146,132.20141 0.703,2.25 5.423,12.5 5.423,12.5 7.809,15.5 7.809,15.5 4.947,8.5 4.946,8.5 6.341,10 6.341,10 9.54,13.5 9.541,13.5 9.056,11.618 9.057,11.619 9.498,11.594 9.498,11.594 0.5,0.034 0.5,0.033 2.381,-12.246 2.382,-12.246 1.263,-4 1.264,-4 0.314,9.5 0.313,9.5 -0.241,11.5 -0.241,11.5 4.401,4.701 4.401,4.702 0.646,-18.202 0.646,-18.201 0.61,-10.45 0.61,-10.451 -1.208,-6.755 -1.207,-6.756 -7.53,-9.794 -7.531,-9.794 -6.305,-9.026 -6.305,-9.026 -7.182,-11.91 -7.183,-11.911 -5.434,-10.719 -5.433,-10.72 -1.405,-1.166 -1.405,-1.166 -15.06,-7.792 -15.061,-7.792 -0.118,7.114 -0.119,7.114 -0.652,3 -0.652,3 -1.185,-6.5 -1.185,-6.5 -0.66,-5.153 -0.661,-5.153 -15.887,-7.597 -15.887,-7.597 h -0.564 -0.565 l 0.703,2.25 m -9.292,7.77 -2.039,5.48 -2.755,8.338 -2.754998,8.339 0.637,6.161 0.636,6.162 0.544,4.5 0.543,4.5 -2.889,-5.405 -2.889,-5.405 -0.637,1.031 -0.637,1.031 -4.517,17.624 -4.518,17.625 v 0.901 0.901 l 5.097,6.027 5.097,6.028 5.802,4.558 5.800998,4.558 7.352,3.955 7.351,3.955 8,2.919 8,2.918 12,2.832 12,2.831 0.872,0.73 0.872,0.73 -6.872,2.223 -6.872,2.222 -13.503,0.462 -13.504,0.462 -8.86,-1.66 -8.859,-1.66 -0.45,0.449 -0.449,0.449 4.45,8.86 4.449,8.86 8.363,4.367 8.363,4.367 2.808,1.987 2.807,1.986 -0.412,0.413 -0.413,0.412 -7.123,-1.71 -7.124,-1.709 -0.646,0.645 -0.645,0.646 3.374,4.666 3.374,4.666 4,1.526 4,1.526 18,7.435 18,7.435 16.756,8.076 16.756,8.076 -0.333,0.333 -0.332,0.333 -8.424,-3.113 -8.423,-3.113 -10,-2.921 -10,-2.92 -12.126,-2.46 -12.125,-2.46 h -2.187 -2.186 l 3.312,4.644 3.312,4.644 6.883,8.106 6.883,8.106 8.593,8.747 8.594,8.747 3.523,0.585 3.524,0.585 5.5,1.476 5.5,1.476 4.305,1.599 4.305,1.599 -1.305,0.828 -1.305,0.827 -6.25,0.016 -6.25,0.015 0.02,0.75 0.021,0.75 6.38,4.718 6.381,4.718 10.196,6.16 10.196,6.16 8.653,-2.594 8.653,-2.593 4,-0.631 4,-0.631 -7.25,4.79 -7.25,4.79 v 0.735 0.734 l 5.25,1.945 5.25,1.944 6.994,1.735 6.995,1.736 15.505,2.226 15.506,2.226 0.371,-0.288 0.37,-0.288 -4.808,-6.796 -4.809,-6.796 -6.015,-8 -6.016,-8 1.825,1.473 1.824,1.473 13.266,15.527 13.266,15.527 13.762,17.5 13.762,17.5 2.861,6.25 2.861,6.25 h 0.901 0.901 l 2.712,-3.223 2.712,-3.223 1.026,-2.252 1.026,-2.253 -2.547,-3.849 -2.548,-3.85 -14.873,-15.474 -14.873,-15.473 -12.801,-14.952 -12.801,-14.951 -23.828,-25.042 -23.828,-25.042 -9.532,-11.169 -9.533,-11.168 -8.207,-10.29 -8.208,-10.289 -9.711,-13 -9.712,-13 -9.375,-14 -9.376,-14 -7.827,-13 -7.827,-13 -9.307,-18.5 -9.307,-18.5 -5.697,-14 -5.698,-14 -0.783,-1.98 -0.783,-1.98 -2.04,5.48 m 421.724,39.647 -11.5,1.44 -5.349,3.197 -5.349,3.196 -2.651,3.096 -2.651,3.095 -1.191,1.905 -1.191,1.904 -0.059,-5.964 -0.059,-5.965 -1.382,1.465 -1.382,1.464 -2.003,6 -2.003,6 -0.65,9 -0.651,9 -0.597,5.389 -0.597,5.389 -0.758,-1.389 -0.758,-1.389 -1.632,-7.967 -1.633,-7.968 -0.629,-10.282 -0.629,-10.283 -1.598,0.002 -1.598,0.003 -16.172,5.473 -16.172,5.473 -12.828,5.112 -12.828,5.111 -12.847,5.48 -12.846,5.48 -29.654,13.537 -29.653,13.536 -10,4.017 -10,4.017 -8.324,2.841 -8.323,2.841 -9.368,2.03 -9.369,2.029 -10.027,0.657 -10.027,0.658 1.719,2.918 1.719,2.919 1.597,1.45 1.597,1.449 11.403,-1.576 11.403,-1.575 13.5,-3.312 13.5,-3.311 10,-3.746 10,-3.747 29,-13.515 29,-13.516 11.5,-4.97 11.5,-4.97 16,-6.301 16,-6.302 10.289,-3.576 10.289,-3.576 0.594,1.547 0.594,1.547 -0.883,0.797 -0.883,0.796 -11.5,4.261 -11.5,4.261 -14.5,6.006 -14.5,6.006 -19,8.759 -19,8.76 -15.5,7.238 -15.5,7.237 -10.046,3.791 -10.047,3.791 -16.953,4.659 -16.954,4.659 -7.25,3.016 -7.25,3.016 v 0.906 0.907 h 14 14 v 0.887 0.888 l -6.466,2.748 -6.466,2.748 -5.205,1.172 -5.205,1.173 3.25,1.346 3.25,1.346 12.671,-2.652 12.671,-2.651 2.5,-0.588 2.5,-0.587 -2.339,1.907 -2.34,1.906 -8.16,4.159 -8.161,4.159 -2.913,1.057 -2.913,1.056 0.972,0.972 0.972,0.972 9.941,2.571 9.941,2.57 8.24,-0.468 8.24,-0.468 -0.532,0.861 -0.532,0.862 -6.641,2.051 -6.64,2.051 -8.965,0.636 -8.966,0.636 4.978,4.749 4.979,4.749 4.261,1.277 4.262,1.277 9.772,-1.22 9.772,-1.219 10.886,-2.925 10.886,-2.925 12.5,-4.952 12.5,-4.952 3.75,-1.603 3.75,-1.603 v 0.586 0.586 l -14.25,6.807 -14.25,6.807 -12.554,4.623 -12.555,4.622 -8.445,2.448 -8.446,2.448 -4.25,1.089 -4.25,1.088 v 5.981 5.98 l 2.75,-0.619 2.75,-0.619 12,-3.472 12,-3.473 13,-4.868 13,-4.867 5.737,-2.542 5.736,-2.541 4.711,-6.066 4.71,-6.066 1.435,2.798 1.435,2.797 0.308,0.357 0.309,0.357 28.809,-13.487 28.81,-13.488 2.378,-0.728 2.378,-0.727 -0.521,-6.495 -0.521,-6.496 4.38,4.299 4.379,4.298 4.764,-1.593 4.763,-1.594 10.387,-3.992 10.387,-3.993 3.363,-4.25 3.363,-4.249 v -3.36 -3.359 h 0.908 0.907 l 1.282,5 1.281,5 h 0.811 0.811 v -2.64 -2.64 l 1.562,-1.142 1.562,-1.142 1.725,-14.968 1.725,-14.968 0.813,2 0.813,2 0.544,15.25 0.543,15.25 h 0.425 0.426 l 9.681,-2.403 9.681,-2.403 6.5,-1.034 6.5,-1.034 8.5,-0.643 8.5,-0.643 10.447,1.089 10.448,1.09 8.429,2.002 8.43,2.002 8.123,3.828 8.123,3.829 5.4,4.888 5.4,4.887 2.849,6.023 2.849,6.022 10e-4,4.601 10e-4,4.601 -1.153,3.399 -1.153,3.399 -2.061,3 -2.062,3 3.465,-2.61 3.464,-2.61 3,-4.816 3,-4.816 -0.019,-9.074 -0.019,-9.074 -2.829,-5.411 -2.829,-5.41 -4.99,-4.86 -4.989,-4.859 -9.234,-4.493 -9.234,-4.492 -9.85,-2.498 -9.85,-2.499 -11.177,-0.98 -11.178,-0.98 -10.223,0.974 -10.223,0.975 -6.39,1.112 -6.39,1.113 -1.231,-0.41 -1.231,-0.411 10.943,-3.599 10.943,-3.6 9.426,-1.586 9.426,-1.586 12.074,0.044 12.074,0.043 4.5,0.87 4.5,0.869 0.324,-0.32 0.323,-0.32 -1.509,-2.918 -1.509,-2.918 -4.019,-3.632 -4.02,-3.631 -4.19,-2.138 -4.191,-2.138 -9.104,-2.304 -9.105,-2.304 -7,-0.748 -7,-0.747 2,-0.784 2,-0.783 12.026,-0.071 12.026,-0.07 8.474,1.035 8.474,1.035 6,1.507 6,1.508 5.5,2.442 5.5,2.443 -5,-4.544 -5,-4.543 -7.122,-3.45 -7.122,-3.449 -7.658,-1.959 -7.658,-1.958 -8.707,-1.159 -8.707,-1.159 -19.013,0.452 -19.013,0.451 3,-0.828 3,-0.828 11.841,-1.56 11.84,-1.561 10.328,0.312 10.328,0.313 -0.95,-1.14 -0.95,-1.141 -4.718,-2.025 -4.719,-2.026 -7.822,-1.084 -7.823,-1.084 -16.177,0.062 -16.178,0.062 -7.25,0.727 -7.25,0.726 v -0.746 -0.746 l 6.786,-2.021 6.786,-2.021 9.464,-1.936 9.464,-1.935 12,-1.229 12,-1.23 15.5,0.642 15.5,0.641 9,1.879 9,1.879 0.329,-0.289 0.328,-0.289 -4.584,-2.686 -4.583,-2.686 -4.785,-1.818 -4.785,-1.818 -7.668,-1.584 -7.668,-1.584 -18.792,0.114 -18.792,0.114 -11.5,1.439 m -274.44,99.509 -0.713,6.302 -2.369,11.631 -2.369,11.631 -2.109,8.258 -2.108,8.258 2.304,2.571 2.304,2.571 15.914,17.051 15.914,17.051 14.476,14.777 14.476,14.777 0.44,-0.441 0.44,-0.44 -2.176,-10.837 -2.176,-10.836 -3.856,-11.589 -3.856,-11.59 -3.875,-8.91 -3.875,-8.911 -5.624,-10.99 -5.623,-10.99 -1.482,3.545 -1.481,3.546 -0.677,2.694 -0.676,2.695 h -0.896 -0.897 l 0.64,-9.769 0.64,-9.769 -3.798,-5.981 -3.798,-5.981 -5.514,-7.5 -5.514,-7.5 -0.687,-0.814 -0.686,-0.813 -0.713,6.303 m 332.019,1.927 -5.922,2.037 -4.298,2.957 -4.299,2.958 -2.569,3.368 -2.569,3.368 -2.064,5.854 -2.064,5.855 0.39,9.044 0.39,9.044 3.069,5.456 3.069,5.456 4.82,3 4.82,3 9.074,-0.001 h 9.074 l 5.753,-2.696 5.752,-2.695 5.606,-5.302 5.607,-5.302 2.409,-4.755 2.41,-4.756 -2.039,-3.996 -2.039,-3.997 h -0.414 -0.415 l -5.315,5.299 -5.315,5.3 -5,2.415 -5,2.416 -6,0.339 -6,0.339 -3.429,-1.804 -3.429,-1.804 -2.038,-2.78 -2.039,-2.779 0.078,-5.374 0.078,-5.373 3.135,-6.699 3.135,-6.7 5.09,-6.397 5.091,-6.398 -0.336,0.033 -0.336,0.034 -5.921,2.036 m -68.079,39.488 -8,1.412 -16.437,4.08 -16.437,4.079 -37.563,12.355 -37.563,12.354 -14,3.95 -14,3.95 -13.5,3.053 -13.5,3.052 -8.5,1.1 -8.5,1.1 -4.373,0.542 -4.373,0.541 0.644,9.171 0.644,9.17 0.574,6.052 0.575,6.053 4.654,2.447 4.655,2.448 9.035,9 9.034,9 1.966,2.807 1.965,2.808 7,-1.213 7,-1.212 4.5,2.29 4.5,2.29 10,6.859 10,6.86 3.339,2.802 3.339,2.802 -2.746,5.598 -2.745,5.598 11.488,14.355 11.487,14.356 7.531,10 7.53,10 11.778,16.5 11.778,16.5 15.219,23 15.219,23 8.836,14 8.836,14 17.817,28.907 17.816,28.908 14.739,5.695 14.739,5.696 6.351,3.212 6.351,3.213 0.286,-0.316 0.286,-0.315 -5.388,-28 -5.389,-28 -4.113,-22.5 -4.112,-22.5 -1.852,-3.643 -1.851,-3.642 -4.125,-3.531 -4.126,-3.532 -9.659,-3.025 -9.659,-3.026 -2,-0.435 -2,-0.434 17,-0.148 17,-0.147 -2.766,-2.434 -2.766,-2.434 -3.801,-1.024 -3.801,-1.023 -9.433,-0.994 -9.433,-0.993 -23.917,-0.018 -23.916,-0.017 0.497,-0.498 0.498,-0.497 20.919,-5.431 20.919,-5.43 9,-3.186 9,-3.185 4.713,-2.384 4.713,-2.385 3.476,-3.052 3.476,-3.052 1.184,-3.587 1.183,-3.587 -0.476,-7.429 -0.477,-7.429 -1.988,-2.684 -1.988,-2.684 -3.193,-2.174 -3.194,-2.174 -6.576,-0.705 -6.576,-0.704 -5.494,0.567 -5.494,0.567 0.356,-0.31 0.355,-0.31 11.168,-4.688 11.167,-4.687 4.488,-2.973 4.489,-2.973 1.803,-2.718 1.803,-2.718 0.407,-9.734 0.406,-9.735 -3.515,-3.515 -3.516,-3.516 -3.35,-0.158 -3.35,-0.159 -2,0.117 -2,0.118 1.902,-1.209 1.901,-1.209 6.037,-4 6.036,-4 1.915,-2.626 1.915,-2.627 0.535,-8.582 0.536,-8.583 -1.262,-3.045 -1.261,-3.046 -3.382,-2.969 -3.381,-2.969 -5.745,-1.776 -5.746,-1.777 -18.5,0.09 -18.5,0.09 -16,1.729 -16,1.73 -9.894,1.453 -9.894,1.453 -0.35,-0.349 -0.349,-0.35 19.244,-6.139 19.243,-6.139 13,-3.543 13,-3.543 14.5,-2.967 14.5,-2.967 12.5,-1.155 12.5,-1.154 0.267,-0.22 0.267,-0.219 1.962,-11.9 1.963,-11.9 0.02,-0.689 0.021,-0.688 -4.75,-0.692 -4.75,-0.692 -5.146,-1.902 -5.146,-1.903 -6.263,-4.048 -6.264,-4.048 -5.714,-5.451 -5.715,-5.451 -5.341,-7.468 -5.341,-7.468 -1.535,0.09 -1.535,0.089 -8,1.412 m -322.116,75.659 0.617,2.25 2.668,11.5 2.667,11.5 1.082,1.168 1.082,1.169 10,3.03 10,3.029 19.039,5.006 19.038,5.006 2.16,0.796 2.161,0.796 -18.369,-0.328 -18.369,-0.329 -6.33,1.601 -6.33,1.6 -2.438,1.79 -2.438,1.79 -2.003,2.682 -2.003,2.683 0.073,4.826 0.072,4.827 1.667,3.223 1.667,3.223 3.202,1.959 3.201,1.959 11.5,4.507 11.5,4.506 1.291,0.825 1.291,0.824 -12.46,-0.084 -12.459,-0.084 -2.832,2.091 -2.831,2.09 -1.455,4.119 -1.455,4.118 1.098,7.625 1.099,7.625 2.856,2.984 2.857,2.983 5.854,2.683 5.855,2.682 -5.239,0.657 -5.239,0.657 -2.615,2.616 -2.616,2.615 v 10.728 10.727 l 0.807,3.81 0.806,3.809 3.61,3.996 3.61,3.996 4.083,2.378 4.084,2.378 6,2.26 6,2.261 16,4.233 16,4.232 -3.03,0.074 -3.03,0.073 -12.47,-1.533 -12.47,-1.532 -9.5,-1.608 -9.5,-1.607 -5.292,-1.821 -5.292,-1.82 2.276,4.048 2.275,4.049 4.183,3.855 4.182,3.855 5.996,3.027 5.995,3.027 11.573,3.507 11.572,3.508 9.266,1.659 9.266,1.659 1.5,0.876 1.5,0.877 -16,-0.57 -16,-0.571 -11.06,-0.99 -11.06,-0.99 -8.69,-1.811 -8.69,-1.81 v 0.687 0.686 l 3.129,4.724 3.13,4.725 4.498,3.435 4.499,3.435 5.425,2.567 5.426,2.566 7.432,1.901 7.432,1.901 13.265,1.543 13.264,1.544 5.75,0.001 5.75,10e-4 v 0.871 0.871 l -10.25,0.74 -10.25,0.739 -25,0.747 -25,0.747 -3.51,1.556 -3.511,1.556 -2.79,2.586 -2.79,2.586 -1.399,3.348 -1.399,3.348 -1.015,7.903 -1.016,7.902 -1.173,8.129 -1.174,8.13 0.653,2.602 0.653,2.602 3.154,3.593 3.155,3.593 11.081,5.502 11.081,5.502 -2.5,-0.642 -2.5,-0.642 -11.5,-0.557 -11.5,-0.558 -3.602,1.51 -3.602,1.51 -2.814,14.363 -2.814,14.363 -0.178,2.932 -0.178,2.932 -3.815,1.321 -3.816,1.321 -3.341,2.548 -3.342,2.549 -1.499,2.899 -1.499,2.899 v 3.901 3.902 l 2.28,3.383 2.279,3.383 3.895,2.185 3.896,2.185 6.242,1.177 6.243,1.178 3.332,-0.718 3.333,-0.718 2.602,-1.328 2.601,-1.329 1.603,-2.447 1.604,-2.447 0.668,-2.664 0.669,-2.665 -3.373,2.057 -3.374,2.057 -4.8,0.003 -4.799,0.004 -2.921,-1.51 -2.921,-1.511 -1.029,-1.924 -1.03,-1.924 v -2.493 -2.493 l 2.631,-2.069 2.63,-2.069 4.12,-1.12 4.119,-1.119 8,0.512 8,0.511 5.657,2.142 5.657,2.141 3.25,2.213 3.25,2.213 3.01,3.74 3.01,3.74 0.447,5.398 0.448,5.398 -1.22,3.698 -1.221,3.698 -3.142,3.579 -3.143,3.579 4.499,-0.592 4.498,-0.592 4.057,-4.456 4.056,-4.457 1.194,-3.982 1.193,-3.983 v -4.008 -4.009 l -1.415,-4.011 -1.416,-4.011 -2.501,-3.963 -2.502,-3.963 22.667,-5.645 22.667,-5.646 12.5,-2.462 12.5,-2.463 15,-2.506 15,-2.506 29.973,-4.594 29.973,-4.594 0.42,-0.42 0.42,-0.42 -1.393,-0.507 -1.393,-0.507 -4.416,-1.53 -4.415,-1.531 -9.514,-1.061 -9.514,-1.061 -20.071,1.131 -20.07,1.131 -15.5,1.964 -15.5,1.964 -2,0.528 -2,0.527 1.713,-1.076 1.713,-1.077 15.287,-3.878 15.287,-3.878 15,-2.576 15,-2.577 19.5,-1.961 19.5,-1.96 19.5,-1.11 19.5,-1.109 13.781,-0.697 13.781,-0.696 -11.825,-19.5 -11.826,-19.5 -9.076,-13.53 -9.076,-13.53 -11.992,-15.97 -11.993,-15.97 -9.074,-10.83 -9.075,-10.83 -12.958,-14.17 -12.959,-14.17 -7.874,-7.5 -7.875,-7.5 -5.645,-5.25 -5.646,-5.25 h -0.632 -0.632 l -5.544,3.546 -5.544,3.547 -1.343,-1.115 -1.343,-1.115 -4.49,-10.682 -4.49,-10.681 -1.575,-6.144 -1.575,-6.145 v -3.091 -3.091 l 4.25,-8.62 4.25,-8.621 -3.5,-2.597 -3.5,-2.597 -5.511,-5.547 -5.51,-5.547 -3.627,-5.5 -3.627,-5.5 -7.161,-1.844 -7.16,-1.844 -9.77,-3.808 -9.769,-3.807 -12.933,-6.488 -12.932,-6.488 -11,-7.238 -11,-7.239 -6.229,-4.872 -6.228,-4.872 h -0.638 -0.638 l 0.617,2.25 m 89.638,20 0.022,1.25 2.015,4.443 2.016,4.442 3.553,4.336 3.552,4.336 7.657,4.482 7.656,4.481 0.312,-0.935 0.312,-0.936 -2.039,-3.996 -2.039,-3.997 -5.769,-6.243 -5.77,-6.243 -5.202,-3.335 -5.202,-3.335 h -0.548 -0.548 l 0.022,1.25 m 71.396,26.504 -4.081,2.746 -6.315,5.5 -6.315,5.5 -8.416,9.5 -8.416,9.5 0.585,2.989 0.586,2.989 3.06,5.011 3.061,5.011 3.785,4.23 3.784,4.23 4.882,-6.225 4.882,-6.225 10.5,-10.364 10.5,-10.365 7.268,-6.04 7.267,-6.039 -0.39,-0.39 -0.39,-0.391 -6.413,2.414 -6.413,2.414 -5.464,2.74 -5.465,2.74 2.578,-2.865 2.577,-2.864 3.777,-5.276 3.777,-5.276 -2.855,1.231 -2.854,1.23 -1.973,1.296 -1.972,1.295 h -1.303 -1.303 l 1.44,-2.785 1.44,-2.784 0.697,-3.716 0.697,-3.715 -1.362,0.004 -1.361,0.005 -4.082,2.745 m 24.609,28.996 -8.474,4.75 -9.61,9.5 -9.611,9.5 -2.319,3.369 -2.319,3.369 6.353,-5.119 6.353,-5.119 h 0.867 0.868 l -0.818,2.25 -0.817,2.25 0.12,4.174 0.12,4.174 2.967,6.326 2.968,6.326 6.068,7.532 6.069,7.532 13.396,12.968 13.397,12.968 8.745,7.5 8.744,7.5 31.703,36.046 31.703,36.047 21.543,25.453 21.542,25.454 25.846,32 25.846,32 2.025,2 2.026,2 -3.501,-5 -3.501,-5 -13.843,-19.5 -13.843,-19.5 -17.513,-24 -17.512,-24 -18.984,-26.5 -18.985,-26.5 -20.904,-29.917 -20.904,-29.917 -10.034,-17.583 -10.034,-17.583 -6.592,-9.5 -6.592,-9.5 -5.277,-5.299 -5.277,-5.299 -4.766,-2.109 -4.766,-2.109 -5.405,-0.592 -5.405,-0.592 8.755,-8.75 8.755,-8.75 h -0.35 -0.35 l -8.473,4.75 m 109.109,235.303 -9.363,0.887 -11.637,2.078 -11.636,2.078 -8,2.037 -7.999,2.037 -14.501,4.489 -14.5,4.489 -19,7.535 -19,7.535 -26,12.029 -26,12.029 -12,5.453 -12,5.453 -12.222,4.891 -12.222,4.891 -9.778,2.903 -9.778,2.903 -9.5,1.242 -9.5,1.242 -12.641,-0.658 -12.642,-0.658 -8.888,-1.438 -8.889,-1.437 -8.766,-2.541 -8.767,-2.54 -5.983,-3.02 -5.982,-3.02 -3.937,-3.937 -3.937,-3.937 -2.777,-5.284 -2.777,-5.284 -0.007,-10.5 -0.007,-10.5 2.735,-5.839 2.736,-5.839 7.021,-7.021 7.021,-7.021 -2.756,0.658 -2.757,0.657 -5.45,2.703 -5.45,2.702 -5.672,5.24 -5.673,5.239 -2.24,5.208 -2.24,5.208 -0.517,5.697 -0.517,5.698 2.096,6.901 2.097,6.901 4.935,6.954 4.936,6.954 6.848,6.672 6.847,6.672 9.5,7.104 9.5,7.104 9.5,4.873 9.5,4.872 8.7,3.056 8.7,3.056 10.521,2.03 10.521,2.03 13.183,1.003 13.184,1.004 0.379,0.379 0.379,0.378 -5.153,0.684 -5.153,0.684 -15.63,-0.021 -15.631,-0.02 -8,-1.093 -8,-1.094 -5.644,-1.436 -5.645,-1.437 h -1.228 -1.228 l 1.315,1.584 1.315,1.585 4.375,3.01 4.375,3.01 7.88,2.876 7.88,2.876 9.803,1.983 9.802,1.983 15,1.055 15,1.055 4.5,0.317 4.5,0.317 -16.789,0.174 -16.79,0.175 -9.71,-1.067 -9.711,-1.067 -9.5,-2.029 -9.5,-2.03 -9,-2.884 -9,-2.883 -9.75,-4.803 -9.75,-4.803 v 0.564 0.565 l 5.75,5.533 5.75,5.534 4.333,2.935 4.333,2.935 5.167,3.279 5.167,3.279 10.5,3.373 10.5,3.373 9.5,1.639 9.5,1.639 15.5,0.593 15.5,0.593 12.5,-1.205 12.5,-1.204 13,-2.4 13,-2.4 12.452,-3.494 12.452,-3.494 0.358,0.358 0.358,0.358 -12.81,4.98 -12.81,4.98 -10,3.204 -10,3.205 -10.205,2.461 -10.205,2.461 -8.295,1.549 -8.295,1.549 -18,0.52 -18,0.521 -11.79,-1.649 -11.79,-1.648 -6.21,-1.947 -6.21,-1.947 -1,0.008 -1,0.009 6.825,4.421 6.825,4.422 7.675,2.525 7.675,2.526 4.789,1.044 4.789,1.045 11.788,0.963 11.788,0.963 11.202,-0.983 11.202,-0.983 11.674,-2.472 11.673,-2.473 13.784,-4.569 13.784,-4.568 10.192,-4.202 10.192,-4.202 2.774,-5 2.774,-5 0.629,-2.759 0.629,-2.758 0.795,0.491 0.796,0.492 1.264,4.767 1.264,4.767 1.321,-4.337 1.32,-4.337 1.22,-7.965 1.219,-7.965 0.689,1.302 0.689,1.302 1.255,8.268 1.255,8.269 0.854,0.528 0.855,0.528 17.492,-7.67 17.493,-7.67 0.616,-1.941 0.616,-1.942 -5.904,-6.685 -5.903,-6.685 -0.881,-1.473 -0.881,-1.472 3.446,2.242 3.447,2.242 5.862,3.18 5.862,3.179 1.049,2.301 1.048,2.301 h 1.84 1.839 v -1.046 -1.045 l -20.641,-20.98 -20.641,-20.98 0.555,-0.555 0.554,-0.555 10.532,7.066 10.531,7.066 12.09,9.676 12.089,9.677 8.215,0.278 8.216,0.279 9.5,-3.415 9.5,-3.415 9,-2.567 9,-2.566 12,-1.969 12,-1.969 19.748,-1.031 19.749,-1.032 11.782,1.024 11.782,1.023 4.71,1.417 4.709,1.417 4.373,2.563 4.373,2.563 3.139,3.575 3.139,3.575 2.61,5.15 2.61,5.151 0.539,5.948 0.539,5.948 1.576,-2.886 1.577,-2.885 0.009,-7 0.01,-7 -2.586,-5.5 -2.585,-5.5 -3.991,-5.018 -3.992,-5.018 -5.41,-3.699 -5.41,-3.699 -5.824,-1.498 -5.825,-1.497 -14.829,-1.135 -14.83,-1.134 -16.997,1.099 -16.996,1.099 h -3.266 -3.266 l 0.542,-0.543 0.543,-0.542 22.689,-4.458 22.688,-4.457 2.186,-0.063 2.185,-0.064 -2.408,-0.963 -2.408,-0.962 -12.218,-2.474 -12.217,-2.474 -3.875,-0.063 -3.874,-0.064 2.5,-1.019 2.5,-1.02 15.75,-0.566 15.75,-0.567 v -0.85 -0.851 l -4.102,-4.102 -4.102,-4.102 -5.313,-2.433 -5.313,-2.432 -6.835,-1.448 -6.835,-1.448 -2.75,-0.018 -2.75,-0.017 v -0.857 -0.856 l 8.961,-0.677 8.961,-0.676 8.468,1.052 8.468,1.053 4.3,1.517 4.301,1.517 3.27,1.93 3.271,1.93 v -0.866 -0.866 l -5.552,-5.074 -5.551,-5.074 -6.298,-3.006 -6.297,-3.005 -8.401,-2.031 -8.401,-2.031 -12.865,-1.138 -12.864,-1.138 -13.204,1.11 -13.203,1.109 -1.846,0.709 -1.846,0.708 0.654,-1.058 0.653,-1.057 7.761,-2.066 7.76,-2.065 9,-1.487 9,-1.487 7,-0.751 7,-0.752 -3,-0.69 -3,-0.69 -8.874,-0.119 -8.875,-0.118 -12.258,2.482 -12.258,2.482 -11.868,3.59 -11.867,3.59 -13.091,4.898 -13.092,4.898 -14.408,6.432 -14.409,6.432 -30.518,15.003 -30.518,15.003 -13.482,5.737 -13.482,5.738 -7,2.404 -7,2.404 -7,1.508 -7,1.509 -10.019,0.582 -10.018,0.583 -8.802,-0.733 -8.803,-0.733 0.366,-0.367 0.367,-0.366 11.454,-1.053 11.455,-1.052 8.464,-1.558 8.463,-1.558 9.37,-3.001 9.369,-3.001 11.167,-4.819 11.167,-4.819 32,-15.7 32,-15.701 13.67,-5.922 13.671,-5.921 15.055,-5.466 15.055,-5.465 12.274,-3.491 12.275,-3.491 12.5,-2.487 12.5,-2.487 11.267,-1.164 11.266,-1.164 18.404,0.415 18.404,0.414 -1.837,-2.542 -1.836,-2.543 -4.104,-3.972 -4.103,-3.972 -13.23,-0.195 -13.231,-0.195 -9.364,0.887 m 72.889,7.712 0.025,0.735 3.435,4.682 3.435,4.682 6.06,2.209 6.059,2.209 4.652,4.095 4.653,4.096 2.933,4.513 2.934,4.514 -0.67,-4 -0.67,-4 -2.03,-4.26 -2.029,-4.26 -4.156,-3.374 -4.156,-3.374 -5,-2.56 -5,-2.559 -5.25,-2.042 -5.25,-2.042 0.025,0.736 m -48.321,93.253 -2.566,2.019 -3.005,6.012 -3.004,6.012 -1.183,5.697 -1.182,5.697 0.467,6.53 0.467,6.531 1.765,3.492 1.765,3.492 2.636,2.842 2.636,2.841 4,2.159 4,2.158 h 12 12 l 6.69,-2.312 6.691,-2.311 5.879,-3.8 5.879,-3.8 3.802,-4.639 3.801,-4.639 -1.166,-2.75 -1.166,-2.749 -1.366,-1.819 -1.365,-1.819 -5.84,3.98 -5.839,3.979 -6.449,2.167 -6.45,2.168 -6.05,0.087 -6.051,0.087 -4,-1.304 -4,-1.304 -2.765,-1.94 -2.765,-1.94 -1.485,-2.871 -1.485,-2.872 v -4.234 -4.234 l 2.207,-4.565 2.207,-4.566 4.746,-4.75 4.745,-4.75 h -8.318 -8.317 l -2.566,2.018"
     stroke="none"
     fill="#f9f9f3"
     fill-rule="evenodd"
     id="path1"
     style="fill:#000000;fill-opacity:1" /></svg>
