<?xml version="1.0" encoding="UTF-8" standalone="no"?>
<svg
   width="1024"
   height="1024"
   viewBox="0 0 1024 1024"
   version="1.1"
   id="svg2"
   sodipodi:docname="trace.svg"
   xml:space="preserve"
   inkscape:version="1.3.2 (091e20e, 2023-11-25, custom)"
   xmlns:inkscape="http://www.inkscape.org/namespaces/inkscape"
   xmlns:sodipodi="http://sodipodi.sourceforge.net/DTD/sodipodi-0.dtd"
   xmlns="http://www.w3.org/2000/svg"
   xmlns:svg="http://www.w3.org/2000/svg"><defs
     id="defs2" /><sodipodi:namedview
     id="namedview2"
     pagecolor="#ffffff"
     bordercolor="#000000"
     borderopacity="0.25"
     inkscape:showpageshadow="2"
     inkscape:pageopacity="0.0"
     inkscape:pagecheckerboard="0"
     inkscape:deskcolor="#d1d1d1"
     inkscape:zoom="1.1455078"
     inkscape:cx="511.56352"
     inkscape:cy="512.87298"
     inkscape:window-width="2560"
     inkscape:window-height="1369"
     inkscape:window-x="1912"
     inkscape:window-y="515"
     inkscape:window-maximized="1"
     inkscape:current-layer="svg2" /><path
     d="M 41.267,18.557 H 26.832 V 4.134 C 26.832,1.851 24.99,0 22.707,0 20.424,0 18.583,1.851 18.583,4.135 V 18.567 H 4.141 c -2.283,0 -4.139,1.851 -4.138,4.135 -0.001,1.141 0.46,2.187 1.207,2.934 0.748,0.749 1.78,1.222 2.92,1.222 H 18.583 V 41.27 c 0,1.142 0.453,2.176 1.201,2.922 0.748,0.748 1.777,1.211 2.919,1.211 2.282,0 4.129,-1.851 4.129,-4.133 V 26.857 h 14.435 c 2.283,0 4.134,-1.867 4.133,-4.15 -10e-4,-2.282 -1.852,-4.15 -4.133,-4.15 z"
     id="path1-8"
     style="fill:currentColor;fill-opacity:1;stroke-width:1.00004627;stroke-dasharray:none;stroke:none"
     transform="matrix(6.3517061,0,0,6.3517061,699.10087,35.169366)" /><path
     d="M 503.073 54.250 L 497.559 60.500 488.530 69.501 L 479.500 78.503 465 89.480 L 450.500 100.457 442.209 108.406 L 433.918 116.354 429.447 123.079 L 424.976 129.804 422.410 135.609 L 419.843 141.413 417.475 150.456 L 415.107 159.500 413.937 167.763 L 412.766 176.027 411.883 176.572 L 411 177.118 411 180.906 L 411 184.694 413 187 L 415 189.306 415 193.046 L 415 196.786 413.590 197.327 L 412.179 197.868 413.220 202.184 L 414.260 206.500 415.564 207.562 L 416.867 208.624 417.446 211.062 L 418.025 213.500 420.064 227 L 422.103 240.500 425.022 260.708 L 427.941 280.915 428.612 283.708 L 429.284 286.500 431.154 290.234 L 433.025 293.969 442.257 306.234 L 451.489 318.500 464.994 332.049 L 478.500 345.598 485.500 350.815 L 492.500 356.033 497.950 358.732 L 503.401 361.431 509.526 361.821 L 515.651 362.211 521.075 359.486 L 526.500 356.761 533 352.200 L 539.500 347.640 549.500 339.441 L 559.500 331.243 571.066 319.371 L 582.633 307.500 588.018 299.500 L 593.404 291.500 596.100 284.500 L 598.797 277.500 599.917 272 L 601.037 266.500 602.437 253.500 L 603.837 240.500 606.513 224.655 L 609.190 208.810 611.185 206.815 L 613.180 204.820 611.215 202.660 L 609.250 200.500 608.125 198.316 L 607 196.131 607 192.026 L 607 187.920 608.927 184.143 L 610.854 180.366 612.373 179.106 L 613.892 177.845 612.946 175.357 L 612 172.870 611.984 169.185 L 611.969 165.500 610.066 156.500 L 608.164 147.500 606.015 141.762 L 603.866 136.025 600.683 131.291 L 597.500 126.556 589.500 122.403 L 581.500 118.250 581.189 116.193 L 580.879 114.135 582.410 111.175 L 583.941 108.214 576.351 101.661 L 568.762 95.107 552.131 83.316 L 535.500 71.525 523.770 59.762 L 512.039 48 510.313 48 L 508.588 48 503.073 54.250 M 504.386 61.750 L 500.674 68.500 496.110 75 L 491.545 81.500 484.712 89.256 L 477.880 97.011 467.190 106.568 L 456.500 116.125 450.814 122.676 L 445.128 129.228 441.657 135.864 L 438.185 142.500 437.184 146.500 L 436.183 150.500 435.563 155.500 L 434.944 160.500 438.191 154.615 L 441.438 148.729 445.969 143.690 L 450.499 138.651 454.472 135.773 L 458.446 132.895 460.578 143.697 L 462.711 154.500 465.826 162.252 L 468.941 170.004 472.582 175.695 L 476.222 181.386 481.623 186.576 L 487.024 191.765 493.762 195.293 L 500.500 198.821 506.375 200.518 L 512.249 202.214 513.045 200.927 L 513.840 199.640 514.670 190.070 L 515.500 180.500 515.435 133 L 515.370 85.500 514.226 71.939 L 513.083 58.379 512.434 56.689 L 511.786 55 509.942 55 L 508.098 55 504.386 61.750 M 432.641 197.210 L 432.027 199.500 432.014 205.123 L 432 210.746 442.280 220.623 L 452.560 230.500 463.030 238.411 L 473.500 246.323 474.260 246.972 L 475.020 247.620 477.038 260.060 L 479.056 272.500 482.568 287.672 L 486.080 302.845 489.405 312.672 L 492.731 322.500 495.467 329 L 498.204 335.500 503.698 345.321 L 509.192 355.141 509.621 354.712 L 510.050 354.283 508.042 349.597 L 506.033 344.911 502.063 332.205 L 498.093 319.500 495.612 309.500 L 493.131 299.500 491.114 288.950 L 489.097 278.399 487.122 262.950 L 485.148 247.500 484.477 240.933 L 483.806 234.365 481.153 233.339 L 478.500 232.314 465 221.506 L 451.500 210.698 444 204.156 L 436.500 197.614 434.877 196.267 L 433.254 194.920 432.641 197.210 M 582 202.209 L 574.500 209.197 560.481 220.535 L 546.462 231.874 543.785 232.892 L 541.108 233.910 540.618 237.205 L 540.128 240.500 537.531 262.075 L 534.934 283.650 532.005 298.075 L 529.075 312.500 524.955 327.473 L 520.835 342.446 518.419 348.391 L 516.003 354.337 516.412 354.745 L 516.821 355.154 521.029 348.957 L 525.237 342.760 530.054 332.630 L 534.872 322.500 537.980 312 L 541.088 301.500 544.016 287.051 L 546.944 272.601 548.682 259.772 L 550.421 246.942 561.789 237.855 L 573.157 228.767 582.160 219.841 L 591.163 210.915 590.460 203.208 L 589.757 195.500 589.628 195.360 L 589.500 195.220 582 202.209 M 432.453 231.250 L 433.164 239.500 436.480 262.240 L 439.797 284.980 447.037 297.240 L 454.278 309.500 456.221 312.750 L 458.163 316 458.455 316 L 458.747 316 454.310 301.750 L 449.873 287.500 444.998 270.500 L 440.123 253.500 436.478 238.250 L 432.833 223 432.287 223 L 431.742 223 432.453 231.250 M 403.500 253.896 L 399.500 255.748 396.825 258.624 L 394.149 261.500 390.725 269 L 387.301 276.500 381.461 284.284 L 375.621 292.068 374.060 291.419 L 372.500 290.769 368.583 289.842 L 364.665 288.915 361.583 289.579 L 358.500 290.244 355 292.025 L 351.500 293.805 349.298 296.166 L 347.095 298.527 345.548 302.232 L 344 305.936 344 308.770 L 344 311.604 336.250 323.214 L 328.500 334.824 323.010 335.514 L 317.520 336.204 309.016 338.668 L 300.511 341.133 292.061 345.093 L 283.612 349.052 273.788 355.592 L 263.964 362.132 254.928 370.731 L 245.893 379.329 239.121 388.415 L 232.349 397.500 228.635 403.696 L 224.921 409.891 220.841 418.597 L 216.762 427.303 212.878 431.516 L 208.995 435.729 203.114 438.368 L 197.233 441.008 191.943 442.011 L 186.653 443.014 186.291 443.376 L 185.930 443.737 187.998 449.264 L 190.066 454.792 193.861 460.646 L 197.657 466.500 203.848 472.215 L 210.039 477.931 206.454 482.628 L 202.869 487.324 200.482 492.035 L 198.095 496.746 193.985 508.623 L 189.875 520.500 186.013 535.250 L 182.151 550 182.647 550 L 183.144 550 187.351 547.534 L 191.559 545.068 199.029 541.969 L 206.500 538.870 217.500 536.026 L 228.500 533.181 233.500 532.508 L 238.500 531.836 226.915 537.248 L 215.329 542.661 206.640 547.284 L 197.951 551.906 190.943 556.608 L 183.936 561.309 181.096 564.543 L 178.257 567.777 177.650 574.139 L 177.042 580.500 176.494 590 L 175.945 599.500 177.223 597.622 L 178.500 595.745 183.753 588.941 L 189.006 582.138 198.753 573.587 L 208.500 565.036 230 553.587 L 251.500 542.138 285.378 525.512 L 319.256 508.887 327.434 500.693 L 335.612 492.500 343.966 482 L 352.321 471.500 359.869 460.792 L 367.417 450.084 367.715 450.381 L 368.013 450.679 364.079 464.590 L 360.145 478.500 359.015 481.500 L 357.885 484.500 359.282 483 L 360.679 481.500 369.173 470.500 L 377.668 459.500 385.907 448.173 L 394.146 436.847 385.284 427.673 L 376.422 418.500 369.746 408.457 L 363.069 398.414 358.581 388.939 L 354.093 379.465 351.098 370.299 L 348.102 361.132 346.551 352.956 L 345 344.779 345.046 337.140 L 345.092 329.500 348.564 340.803 L 352.036 352.105 355.655 361.303 L 359.273 370.500 364.134 380.226 L 368.994 389.952 372.651 395.726 L 376.308 401.500 382.586 409.593 L 388.864 417.687 396.169 424.450 L 403.474 431.214 412.487 436.521 L 421.500 441.827 429.500 448.587 L 437.500 455.347 449.334 466.347 L 461.168 477.346 461.834 476.365 L 462.500 475.384 464.973 473.692 L 467.445 472 471.065 472 L 474.685 472 479.093 474.503 L 483.500 477.006 490.984 480.725 L 498.468 484.444 505.499 484.444 L 512.530 484.444 524.515 478.788 L 536.500 473.132 540.500 472.072 L 544.500 471.011 548.800 471.006 L 553.099 471 555.872 472.434 L 558.646 473.868 559.950 475.440 L 561.255 477.012 568.377 470.249 L 575.500 463.485 581.895 458.165 L 588.289 452.846 600.072 444.952 L 611.854 437.058 620.677 429.645 L 629.500 422.231 635.090 416.366 L 640.679 410.500 646.400 403.622 L 652.120 396.744 658.281 387.622 L 664.442 378.500 671.194 365.500 L 677.946 352.500 677.973 354.193 L 678 355.885 674.491 366.693 L 670.982 377.500 665.027 389.500 L 659.071 401.500 651.146 412 L 643.221 422.500 635.860 429.540 L 628.500 436.580 625.643 438.768 L 622.787 440.956 631.485 454.149 L 640.183 467.342 648.809 478.826 L 657.435 490.311 667.827 501.155 L 678.219 512 679.157 512 L 680.096 512 685.330 508.652 L 690.564 505.304 692.736 504.141 L 694.908 502.979 694.420 508.239 L 693.932 513.500 693.488 517.733 L 693.043 521.966 698.749 525.616 L 704.455 529.266 720.478 537.770 L 736.500 546.273 750.500 553.777 L 764.500 561.281 772 566.327 L 779.500 571.372 790.841 582.436 L 802.181 593.500 806.934 600 L 811.687 606.500 818.357 617.666 L 825.027 628.832 828.051 635.296 L 831.076 641.760 833.527 653.333 L 835.978 664.906 837.598 668.953 L 839.217 673 839.962 673 L 840.706 673 840.215 667.888 L 839.724 662.777 844.112 663.218 L 848.500 663.660 850.081 664.372 L 851.662 665.084 854.804 659.292 L 857.947 653.500 858.148 666 L 858.349 678.500 858.732 674.250 L 859.115 670 859.807 670.004 L 860.500 670.007 863.806 672.023 L 867.113 674.039 871.499 678.552 L 875.885 683.065 878.614 688.644 L 881.344 694.223 881.805 702.187 L 882.266 710.151 884.883 711.142 L 887.500 712.133 889.891 714.317 L 892.282 716.500 895.022 720.758 L 897.762 725.017 898.368 722.758 L 898.973 720.500 898.986 714.309 L 899 708.118 899.887 707.570 L 900.773 707.022 901.873 708.347 L 902.973 709.673 904.437 713.821 L 905.900 717.969 906.918 725.735 L 907.936 733.500 908.186 740.732 L 908.437 747.963 909.440 746.960 L 910.444 745.956 910.832 732.666 L 911.221 719.376 909.081 708.194 L 906.942 697.012 906.303 695.348 L 905.665 693.684 909.488 694.304 L 913.312 694.925 916.225 697.712 L 919.138 700.500 920.289 704.798 L 921.440 709.095 922.150 707.298 L 922.859 705.500 922.922 695.500 L 922.984 685.500 921.969 676.500 L 920.954 667.500 919.459 661.500 L 917.965 655.500 909.537 638.500 L 901.108 621.500 894.162 611 L 887.215 600.500 887.468 600.222 L 887.722 599.945 896.111 602.590 L 904.500 605.235 910.207 608.110 L 915.913 610.985 919.335 613.989 L 922.756 616.993 921.782 612.246 L 920.808 607.500 917.476 600.477 L 914.144 593.455 907.822 587.403 L 901.500 581.351 896.831 578.628 L 892.163 575.905 885.331 573.954 L 878.500 572.003 870.500 568.148 L 862.500 564.292 854.500 558.309 L 846.500 552.326 836.500 541.893 L 826.500 531.459 820.406 522.480 L 814.313 513.500 810.176 506.476 L 806.040 499.451 804.649 494.829 L 803.258 490.206 799.085 484.379 L 794.912 478.552 799.197 475.026 L 803.482 471.500 807.268 467.500 L 811.054 463.500 815.527 454.648 L 820 445.797 820 444.444 L 820 443.091 816.250 442.461 L 812.500 441.832 809 440.805 L 805.500 439.778 801.500 437.474 L 797.500 435.170 794.327 431.835 L 791.153 428.500 785.635 417.500 L 780.117 406.500 774.153 397.500 L 768.190 388.500 761.734 381 L 755.279 373.500 747.647 367.187 L 740.015 360.874 731.355 355.437 L 722.695 350 721.544 350 L 720.393 350 716.077 361.250 L 711.762 372.500 711.061 373.269 L 710.361 374.039 710.155 363.769 L 709.950 353.500 709.357 349.221 L 708.764 344.943 702.882 343.307 L 697 341.672 697 341.033 L 697 340.395 689.850 329.447 L 682.699 318.500 682.905 313.623 L 683.110 308.746 680.494 303.399 L 677.878 298.052 673.897 294.644 L 669.916 291.236 665.302 289.945 L 660.688 288.653 655.594 289.740 L 650.500 290.828 648.920 291.456 L 647.341 292.083 641.669 284.677 L 635.996 277.272 632.079 268.793 L 628.162 260.314 625.106 257.743 L 622.051 255.172 618.484 253.995 L 614.918 252.818 613.395 253.402 L 611.873 253.986 612.352 254.761 L 612.831 255.536 611.950 263.392 L 611.069 271.248 609.005 279.211 L 606.941 287.173 603.970 293.726 L 600.999 300.278 595.584 308.389 L 590.169 316.500 581.131 326.660 L 572.092 336.820 562.296 345.490 L 552.500 354.160 542.736 360.693 L 532.972 367.225 525.500 370.126 L 518.027 373.028 512.248 373.632 L 506.469 374.236 500.260 372.645 L 494.051 371.054 488.155 368.078 L 482.260 365.102 474.734 359.122 L 467.208 353.141 460.036 345.898 L 452.865 338.655 446.364 330.578 L 439.862 322.500 434.418 314.369 L 428.974 306.238 423.895 296.590 L 418.815 286.942 415.945 278.503 L 413.075 270.065 411.344 261.033 L 409.612 252 408.556 252.022 L 407.500 252.044 403.500 253.896 M 384.336 298.567 L 383.734 300.134 384.260 305.930 L 384.785 311.725 389.384 322.613 L 393.983 333.500 399.241 342.245 L 404.500 350.989 410.229 357.964 L 415.958 364.938 421.729 369.526 L 427.500 374.115 430.343 375.631 L 433.186 377.147 433.610 376.724 L 434.033 376.300 428.134 368.900 L 422.235 361.500 416.623 353.105 L 411.011 344.711 405.135 333.105 L 399.258 321.500 395.017 311.742 L 390.775 301.984 388.815 299.492 L 386.855 297 385.896 297 L 384.937 297 384.336 298.567 M 359.250 300.662 L 358 301.167 358 307.602 L 358 314.037 361.605 325.268 L 365.210 336.500 369.685 347.500 L 374.159 358.500 380.662 371.500 L 387.166 384.500 393.798 394.500 L 400.430 404.500 408.895 413.289 L 417.360 422.077 423.930 426.913 L 430.500 431.748 433.963 433.510 L 437.426 435.272 431.184 428.459 L 424.941 421.646 419.543 414.573 L 414.144 407.500 408.567 398.589 L 402.989 389.678 403.335 389.331 L 403.681 388.985 410.591 393.533 L 417.500 398.080 429 403.927 L 440.500 409.773 450.492 413.494 L 460.485 417.214 470.992 419.669 L 481.500 422.125 497.134 422.700 L 512.767 423.276 522.634 422.079 L 532.500 420.882 546.500 418.910 L 560.500 416.939 569.500 414.383 L 578.500 411.828 587.164 407.357 L 595.829 402.886 602.664 397.154 L 609.500 391.422 617 381.779 L 624.500 372.137 636.438 353.319 L 648.376 334.500 658.188 318.591 L 668 302.681 668 301.908 L 668 301.135 666.026 300.508 L 664.052 299.882 657.940 301.597 L 651.828 303.312 649.311 307.299 L 646.794 311.287 642.524 320.060 L 638.254 328.834 637.218 331.805 L 636.182 334.776 626.341 340.510 L 616.500 346.243 602.500 354.777 L 588.500 363.312 579 369.805 L 569.500 376.299 566.500 378.817 L 563.500 381.336 566 380.639 L 568.500 379.942 587.906 374.928 L 607.313 369.914 608.815 370.207 L 610.317 370.500 602.468 378.842 L 594.619 387.184 588.681 391.216 L 582.744 395.249 575.441 398.623 L 568.138 401.997 561.719 403.485 L 555.301 404.974 538.900 406.483 L 522.500 407.992 511.426 407.996 L 500.352 408 490.926 406.422 L 481.500 404.845 468 400.378 L 454.500 395.912 442.492 390.074 L 430.485 384.236 420.992 377.921 L 411.500 371.605 402.934 362.995 L 394.368 354.386 389.108 346.443 L 383.849 338.500 376.777 324.243 L 369.705 309.986 369.225 304.993 L 368.746 300 364.623 300.079 L 360.500 300.158 359.250 300.662 M 318.500 348.055 L 311.500 350.968 304.244 354.757 L 296.989 358.546 287.802 365.023 L 278.615 371.500 270.557 379.500 L 262.500 387.500 257.320 394.440 L 252.140 401.379 247.945 408.710 L 243.751 416.041 241.219 422.270 L 238.686 428.500 238.223 433.177 L 237.760 437.854 244.630 441.309 L 251.500 444.764 265.500 450.242 L 279.500 455.720 284.305 457.005 L 289.109 458.291 288.298 459.102 L 287.486 459.914 278.993 462.025 L 270.500 464.135 257 464.689 L 243.500 465.242 235.321 463.689 L 227.142 462.137 220.821 459.512 L 214.500 456.887 213 456.283 L 211.500 455.680 214 458.426 L 216.500 461.172 223.075 465.546 L 229.651 469.921 234.575 472.034 L 239.500 474.147 247.500 476.066 L 255.500 477.986 267.267 477.993 L 279.035 478 288.711 475.904 L 298.387 473.807 306.936 470.790 L 315.486 467.772 324.593 463.430 L 333.701 459.088 341.319 453.993 L 348.937 448.898 350.855 446.199 L 352.774 443.500 354.024 439.322 L 355.274 435.144 354.077 430.322 L 352.881 425.500 347.481 416 L 342.081 406.500 340.491 402 L 338.901 397.500 335.023 380 L 331.144 362.500 330.049 356 L 328.954 349.500 328.458 347.250 L 327.962 345 326.731 345.070 L 325.500 345.141 318.500 348.055 M 699 431.545 L 699 433.556 702.349 440.528 L 705.697 447.500 711.736 455.500 L 717.774 463.500 726.637 472.035 L 735.500 480.571 740.282 483.855 L 745.063 487.140 750.532 489.643 L 756 492.147 757.498 491.823 L 758.995 491.500 740.606 472 L 722.216 452.500 710.608 441.016 L 699 429.533 699 431.545 M 405.476 445.765 L 404.452 446.500 396.819 458 L 389.187 469.500 380 479.817 L 370.813 490.135 361.157 498.172 L 351.500 506.210 338 515.189 L 324.500 524.167 300 536.379 L 275.500 548.591 250 559.918 L 224.500 571.245 224.125 571.581 L 223.750 571.917 221.467 583.209 L 219.184 594.500 218.504 600.031 L 217.824 605.562 219.724 607.908 L 221.624 610.254 225.562 610.945 L 229.500 611.637 225.750 613.917 L 222 616.198 222 618.915 L 222 621.632 216.450 623.932 L 210.901 626.232 203.700 631.059 L 196.500 635.885 194.159 637.927 L 191.817 639.968 193.833 643.234 L 195.849 646.500 197.043 651.249 L 198.237 655.998 182.368 671.425 L 166.500 686.853 170.500 690.107 L 174.500 693.360 179.198 698.238 L 183.896 703.117 188.417 709.979 L 192.938 716.841 196.643 724.330 L 200.349 731.819 208.025 724.854 L 215.701 717.889 221.090 713.840 L 226.479 709.791 231.490 707.245 L 236.500 704.699 241.500 703.361 L 246.500 702.024 250.129 702.012 L 253.757 702 254.808 704.750 L 255.860 707.500 257.071 711.085 L 258.283 714.671 267.891 710.913 L 277.500 707.156 283.551 705.919 L 289.602 704.682 294.551 707.530 L 299.500 710.379 305.195 714.189 L 310.890 718 311.588 718 L 312.286 718 311.740 710.041 L 311.195 702.082 307.943 695.028 L 304.692 687.974 305.232 687.435 L 305.772 686.895 307.967 690.447 L 310.163 694 310.425 694 L 310.687 694 309.449 687.415 L 308.212 680.830 305.609 678.113 L 303.005 675.396 304.618 671.290 L 306.231 667.184 303.615 661.471 L 301 655.758 301 654.232 L 301 652.706 304.359 648.603 L 307.719 644.500 312.733 636.815 L 317.748 629.129 322.874 619.150 L 328 609.171 328 607.144 L 328 605.117 321.982 601.910 L 315.964 598.702 316.389 598.277 L 316.814 597.853 319.857 599.426 L 322.901 601 324.200 600.985 L 325.500 600.969 333.242 587.235 L 340.984 573.500 340.992 582.300 L 341 591.099 339.537 593.928 L 338.075 596.756 334.842 598.803 L 331.610 600.850 331.873 605.814 L 332.137 610.779 331.065 614.757 L 329.994 618.735 319.115 635.236 L 308.236 651.736 307.207 652.372 L 306.179 653.007 307.625 659.254 L 309.071 665.500 312.012 671.812 L 314.953 678.124 321.197 684.627 L 327.441 691.129 332.312 694.629 L 337.183 698.128 336.468 685.814 L 335.753 673.500 336.262 674 L 336.771 674.500 339.995 682.290 L 343.220 690.081 347.936 697.290 L 352.651 704.500 356.927 709.428 L 361.203 714.356 360.851 738.013 L 360.500 761.671 345.277 779.246 L 330.054 796.821 337.527 805.369 L 345 813.916 345 814.387 L 345 814.858 336.030 811.850 L 327.061 808.842 326.523 805.671 L 325.986 802.500 322.993 778.386 L 320 754.273 320 752.136 L 320 750 324 750 L 328 750 328.002 749.250 L 328.004 748.500 324.283 736.573 L 320.562 724.646 321.639 724.287 L 322.716 723.928 324.448 722.662 L 326.180 721.395 320.189 717.698 L 314.199 714 313.474 714 L 312.750 714 313.327 716.885 L 313.904 719.769 310.952 720.360 L 308 720.950 308 723.752 L 308 726.555 309.321 728.527 L 310.641 730.500 312.902 734.250 L 315.163 738 314.688 738 L 314.214 738 305.857 727.802 L 297.500 717.605 294.150 713.821 L 290.800 710.037 288.792 711.111 L 286.784 712.186 283.392 719.527 L 280 726.869 280 728.434 L 280 730 279.250 730.002 L 278.500 730.005 278.827 721.987 L 279.153 713.969 274.327 715.911 L 269.500 717.853 265.260 719.677 L 261.020 721.500 261.016 723 L 261.012 724.500 263.884 734.500 L 266.756 744.500 267.458 747.751 L 268.159 751.002 266.330 751.616 L 264.500 752.231 258.024 755.169 L 251.548 758.107 241.906 767.850 L 232.264 777.594 231.565 779.794 L 230.867 781.995 250.339 804.328 L 269.811 826.661 279.517 836.915 L 289.223 847.169 288.853 846.335 L 288.484 845.500 284.602 838 L 280.721 830.500 276.341 819.603 L 271.961 808.706 272.332 808.334 L 272.704 807.963 286.185 823.918 L 299.666 839.874 313.083 854.518 L 326.500 869.162 334.354 876.130 L 342.208 883.097 343.318 882.727 L 344.427 882.358 346.951 877.429 L 349.474 872.500 349.487 864.811 L 349.500 857.121 351.619 859.112 L 353.738 861.102 356.391 865.977 L 359.044 870.851 360.980 878.421 L 362.916 885.990 363.591 893.745 L 364.267 901.500 365.169 903.250 L 366.070 905 369.924 905 L 373.778 905 376.139 903.083 L 378.500 901.165 378.325 887.833 L 378.149 874.500 376.757 864.304 L 375.365 854.107 376.218 854.635 L 377.071 855.162 386.541 874.081 L 396.010 893 396.490 893 L 396.971 893 395.088 888.250 L 393.205 883.500 391.477 879.209 L 389.750 874.917 390.183 874.484 L 390.615 874.051 400.058 885.221 L 409.500 896.391 425.253 912.446 L 441.006 928.500 438.997 923.654 L 436.989 918.807 433.994 910.324 L 431 901.841 431 901.190 L 431 900.539 437.573 909.520 L 444.146 918.500 451.572 929.750 L 458.998 941 459.400 941 L 459.802 941 461.824 937.573 L 463.846 934.147 465.684 934.628 L 467.523 935.108 473.288 930.980 L 479.054 926.851 480.023 927.176 L 480.991 927.500 477.998 933.183 L 475.004 938.867 477.946 940.962 L 480.888 943.057 495.106 951.528 L 509.323 960 510.943 960 L 512.564 960 523.214 953.603 L 533.864 947.207 548.860 937.426 L 563.856 927.645 573.178 915.941 L 582.500 904.237 582.840 904.542 L 583.181 904.848 579.494 913.174 L 575.807 921.500 572.919 928 L 570.030 934.500 584.641 919.500 L 599.252 904.500 609.754 892.500 L 620.256 880.500 622.172 878.500 L 624.088 876.500 622.629 880 L 621.171 883.500 615.609 895.326 L 610.046 907.151 610.871 906.826 L 611.695 906.500 617.909 899.500 L 624.122 892.500 633.684 880.207 L 643.246 867.913 643.498 868.207 L 643.749 868.500 642.947 874 L 642.146 879.500 642.073 889.795 L 642 900.091 644.455 902.545 L 646.909 905 650.332 905 L 653.755 905 654.868 903.659 L 655.982 902.317 657.503 894.298 L 659.024 886.280 661.457 879.126 L 663.890 871.972 666.489 867.236 L 669.088 862.500 672.135 859 L 675.182 855.500 674.618 857.260 L 674.055 859.020 672.897 865.672 L 671.738 872.324 672.311 880.412 L 672.884 888.500 674.144 892.360 L 675.403 896.220 678.103 899.110 L 680.802 902 684.050 902 L 687.298 902 700.399 895.180 L 713.500 888.361 730.073 878.161 L 746.646 867.961 765.246 835.231 L 783.846 802.500 785.102 799.710 L 786.358 796.920 789.079 797.517 L 791.801 798.115 794.298 792.808 L 796.796 787.500 801.284 781.616 L 805.773 775.731 814.637 761.155 L 823.500 746.579 823.868 745.684 L 824.237 744.789 817.368 737.806 L 810.500 730.822 803.500 725.094 L 796.500 719.365 791.820 716.183 L 787.140 713 786.665 713 L 786.190 713 786.671 717.250 L 787.152 721.500 784.174 716.910 L 781.196 712.321 777.697 710.660 L 774.198 709 770.134 709 L 766.070 709 765.006 710.990 L 763.941 712.979 760.512 728.518 L 757.082 744.058 756.561 744.901 L 756.040 745.745 762.355 748.854 L 768.670 751.963 775.274 758.014 L 781.877 764.064 785.654 769.210 L 789.432 774.356 788.198 774.767 L 786.964 775.179 785.554 776.589 L 784.143 778 783.321 777.957 L 782.500 777.915 778.642 772.913 L 774.785 767.912 768.086 762.500 L 761.387 757.087 755.943 754.553 L 750.500 752.020 749.112 752.010 L 747.725 752 748.369 746.750 L 749.014 741.500 751.872 731.837 L 754.730 722.175 745.115 717.669 L 735.500 713.163 729.574 711.631 L 723.648 710.098 722.234 710.889 L 720.819 711.681 715.160 718.688 L 709.500 725.696 704.250 731.900 L 699 738.104 699 737.618 L 699 737.133 701.916 732.316 L 704.831 727.500 705.450 725.355 L 706.068 723.211 704.463 721.605 L 702.857 720 701.383 720 L 699.909 720 700.590 716.370 L 701.271 712.740 694.886 717.119 L 688.500 721.498 688.002 721.831 L 687.504 722.163 690.130 724.076 L 692.756 725.989 689.378 737.116 L 686 748.242 686 748.993 L 686 749.744 690.074 750.396 L 694.149 751.047 693.614 753.774 L 693.080 756.500 690.476 781.500 L 687.873 806.500 687.186 807.800 L 686.500 809.101 678.048 812.050 L 669.596 815 669.209 815 L 668.823 815 677.006 805.433 L 685.189 795.866 683.753 794.183 L 682.317 792.500 669.434 777 L 656.552 761.500 655.838 754.500 L 655.124 747.500 655.062 726.367 L 655 705.233 656.838 704.753 L 658.676 704.272 659.327 688.480 L 659.979 672.688 660.539 672.128 L 661.099 671.568 672.300 673.199 L 683.500 674.831 692.814 677.830 L 702.128 680.830 702.485 679.665 L 702.841 678.500 705.280 669.689 L 707.718 660.878 698.832 647.189 L 689.947 633.500 685.473 624.841 L 681 616.182 681 610.640 L 681 605.098 682.091 600.012 L 683.182 594.926 681.549 592.435 L 679.917 589.944 680.208 582.222 L 680.500 574.500 685.765 585.386 L 691.030 596.273 691.624 598.636 L 692.217 601 693.886 601 L 695.555 601 698.027 599.352 L 700.500 597.704 699 599.308 L 697.500 600.913 691 603.345 L 684.500 605.778 684.182 607.879 L 683.863 609.980 688.382 619.519 L 692.900 629.057 698.124 637.705 L 703.348 646.354 708.238 652.814 L 713.128 659.275 711.064 664.073 L 709 668.871 709 670.949 L 709 673.027 710.250 675.083 L 711.500 677.139 708.797 679.320 L 706.093 681.501 704.607 688 L 703.121 694.500 706.061 691.038 L 709 687.576 709 688.813 L 709 690.050 705.500 697 L 702 703.950 702 710.928 L 702 717.906 707.750 714.090 L 713.500 710.275 719.610 707.194 L 725.721 704.112 732.110 705.591 L 738.500 707.069 743.796 709.038 L 749.092 711.007 753.066 713.034 L 757.039 715.061 757.410 713.780 L 757.780 712.500 759.435 707.847 L 761.091 703.194 763.373 702.621 L 765.654 702.049 771.526 703.004 L 777.398 703.960 782.449 706.465 L 787.500 708.969 793.500 713.488 L 799.500 718.007 806.806 725.115 L 814.111 732.222 814.451 731.861 L 814.791 731.500 819.342 722.774 L 823.893 714.048 828.119 707.824 L 832.346 701.600 837.423 696.477 L 842.500 691.353 845.470 689.110 L 848.440 686.866 838.470 677.149 L 828.500 667.432 822.604 662.156 L 816.708 656.881 817.912 651.501 L 819.116 646.122 821.261 643.395 L 823.406 640.669 818.661 636.494 L 813.917 632.318 807.708 628.611 L 801.500 624.904 798.750 624.327 L 796 623.750 795.991 623.125 L 795.983 622.500 794.979 611.155 L 793.975 599.810 790.521 595.655 L 787.067 591.500 781.194 584.500 L 775.322 577.500 769.911 572.889 L 764.500 568.277 756 562.756 L 747.500 557.235 735 550.983 L 722.500 544.731 709.274 538.938 L 696.047 533.145 686.758 527.677 L 677.469 522.210 668.484 515.250 L 659.500 508.290 648.996 497.395 L 638.492 486.500 630.891 476 L 623.291 465.500 619.107 458.259 L 614.923 451.019 612.396 450.385 L 609.870 449.751 606.798 452.625 L 603.725 455.500 596.605 465 L 589.486 474.500 580.589 488.500 L 571.693 502.500 565.657 511 L 559.622 519.500 553.582 526.761 L 547.542 534.022 541.362 539.036 L 535.183 544.050 529.392 546.971 L 523.602 549.891 519.863 550.523 L 516.125 551.155 515.518 556.827 L 514.912 562.500 513.257 575.500 L 511.601 588.500 510.859 583.500 L 510.116 578.500 508.583 565.195 L 507.050 551.890 506.466 550.945 L 505.882 550 504.336 550 L 502.790 550 497.645 547.421 L 492.500 544.843 487.091 540.677 L 481.682 536.512 474.915 528.693 L 468.148 520.875 458.415 506.688 L 448.683 492.500 440.126 480.505 L 431.569 468.511 424.178 459.005 L 416.787 449.500 414.719 447.250 L 412.651 445 409.576 445.015 L 406.500 445.031 405.476 445.765 M 423.919 499.904 L 412.500 508.809 409.136 511.681 L 405.772 514.554 407.053 524.027 L 408.334 533.500 408.944 534.227 L 409.555 534.955 415.527 531.336 L 421.500 527.717 428.500 524.796 L 435.500 521.876 443.939 519.415 L 452.378 516.955 452.702 516.631 L 453.026 516.308 444.468 503.654 L 435.909 491 435.624 491 L 435.339 491 423.919 499.904 M 578.588 512.656 L 576.018 516.437 582.299 517.707 L 588.580 518.976 595.959 521.486 L 603.338 523.996 603.734 523.599 L 604.131 523.202 594.816 517.450 L 585.500 511.698 583.329 510.286 L 581.158 508.874 578.588 512.656 M 395.962 524.620 L 392.457 528.500 387.845 535 L 383.234 541.500 379.475 549 L 375.717 556.500 373.326 563.500 L 370.936 570.500 369.468 578.881 L 368 587.262 368 588.713 L 368 590.163 373.550 579.077 L 379.099 567.992 384.937 560.246 L 390.775 552.500 396.490 547.096 L 402.206 541.692 401.535 534.596 L 400.863 527.500 400.165 524.120 L 399.467 520.740 395.962 524.620 M 408.567 554.750 L 409.173 557.500 411.715 566.500 L 414.256 575.500 418.138 585.293 L 422.019 595.087 425.509 602.018 L 429 608.950 429 609.543 L 429 610.135 423.250 607.091 L 417.500 604.046 407.250 599.014 L 397 593.982 397 594.367 L 397 594.751 415.051 605.530 L 433.101 616.309 442.517 630.655 L 451.933 645 452.452 645 L 452.971 645 449.608 635.750 L 446.245 626.500 445.452 624.586 L 444.660 622.672 445.580 623.180 L 446.500 623.688 458.859 630.520 L 471.218 637.351 470.649 648.925 L 470.081 660.500 472.490 653.500 L 474.899 646.500 474.950 644.912 L 475 643.324 478.505 643.192 L 482.010 643.061 495.701 650.030 L 509.391 657 511.359 657 L 513.327 657 530.413 648.151 L 547.500 639.302 569.500 626.996 L 591.500 614.689 607.250 605.307 L 623 595.925 623 595.456 L 623 594.988 606.750 603.098 L 590.500 611.207 551.720 631.715 L 512.940 652.222 510.540 651.763 L 508.140 651.304 475.170 633.953 L 442.200 616.603 431.685 596.551 L 421.170 576.500 415.077 564.250 L 408.985 552 408.473 552 L 407.962 552 408.567 554.750 M 300.634 583.217 L 301.278 584.258 308.389 587.537 L 315.500 590.816 319 591.158 L 322.500 591.500 322.500 590 L 322.500 588.500 317.036 586.689 L 311.573 584.877 305.781 583.526 L 299.990 582.175 300.634 583.217 M 708.500 585.373 L 701.500 587.656 698.250 589.354 L 695 591.051 695 592.166 L 695 593.280 700.372 592.725 L 705.745 592.171 710.122 589.969 L 714.500 587.767 716.250 586.229 L 718 584.690 718 583.845 L 718 583 716.750 583.045 L 715.500 583.089 708.500 585.373 M 232.633 590.494 L 230 596.055 230 600.524 L 230 604.994 233.621 609.002 L 237.242 613.010 244.371 616.495 L 251.500 619.980 261 622.456 L 270.500 624.932 276.250 625.815 L 282 626.697 282 625.985 L 282 625.273 267.250 619.026 L 252.500 612.780 245.689 609.234 L 238.877 605.688 235.939 602.943 L 233 600.198 233 596.567 L 233 592.936 234.513 589.314 L 236.026 585.693 235.646 585.313 L 235.266 584.933 232.633 590.494 M 781.662 591.622 L 782.215 595.745 780.477 599.407 L 778.739 603.069 775.120 606.096 L 771.500 609.122 763.500 613.008 L 755.500 616.894 746.500 619.467 L 737.500 622.041 736.500 622.467 L 735.500 622.894 740 622.314 L 744.500 621.735 753.827 619.406 L 763.154 617.076 768.827 614.484 L 774.500 611.892 777.835 608.696 L 781.171 605.500 782.585 602.800 L 784 600.099 783.955 596.800 L 783.910 593.500 782.510 590.500 L 781.110 587.500 781.662 591.622 M 289 623.713 L 292.500 625.264 297.500 626.620 L 302.500 627.976 306.250 627.988 L 310 628 310 627.078 L 310 626.155 306.750 625.112 L 303.500 624.069 297 623.042 L 290.500 622.015 288 622.089 L 285.500 622.163 289 623.713 M 715.547 624.111 L 709.594 624.979 706.297 626.067 L 703 627.155 703 628.078 L 703 629 706.895 629 L 710.789 629 717.645 626.906 L 724.500 624.813 725.450 623.906 L 726.400 623 723.950 623.122 L 721.500 623.244 715.547 624.111 M 271.477 634.977 L 276.379 639.954 276.781 639.552 L 277.183 639.151 276.520 637.063 L 275.857 634.975 272.197 632.488 L 268.536 630 267.555 630 L 266.575 630 271.477 634.977 M 741 631.431 L 736.500 632.683 732.384 634.794 L 728.267 636.904 725.090 639.578 L 721.912 642.252 719.926 646.146 L 717.939 650.039 719.387 650.595 L 720.835 651.151 723.222 649.825 L 725.608 648.500 735.607 641.296 L 745.606 634.093 747.458 632.046 L 749.310 630 747.405 630.089 L 745.500 630.179 741 631.431 M 664.801 637.750 L 659.377 644.500 658.620 646 L 657.863 647.500 660.992 644 L 664.120 640.500 667.559 635.750 L 670.997 631 670.611 631 L 670.225 631 664.801 637.750 M 218.821 633.023 L 212.142 633.821 210.642 634.660 L 209.142 635.500 214.415 635.500 L 219.688 635.500 229.094 640.199 L 238.500 644.897 250 652.596 L 261.500 660.295 269.500 666.365 L 277.500 672.436 286.985 680.968 L 296.470 689.500 294.039 686 L 291.608 682.500 285.575 675 L 279.542 667.500 269.521 657.105 L 259.500 646.711 252.152 640.402 L 244.804 634.093 240.652 633.582 L 236.500 633.071 231 632.648 L 225.500 632.224 218.821 633.023 M 355.018 638.733 L 360.136 645.966 361.256 646.658 L 362.376 647.350 359.066 642.741 L 355.755 638.131 352.828 634.816 L 349.901 631.500 355.018 638.733 M 780.366 632.920 L 773.232 633.500 767.426 637.500 L 761.619 641.500 747.879 654.795 L 734.139 668.091 725.820 678.136 L 717.500 688.182 717.135 689.341 L 716.770 690.500 718.135 688.870 L 719.500 687.241 726.500 680.980 L 733.500 674.719 741 669.021 L 748.500 663.324 756.500 657.855 L 764.500 652.387 773.143 647.191 L 781.786 641.995 788.643 638.774 L 795.500 635.553 801.361 635.543 L 807.223 635.533 804.361 634.402 L 801.500 633.271 794.500 632.806 L 787.500 632.341 780.366 632.920 M 279.514 637.977 L 278.908 638.959 279.948 640.904 L 280.989 642.849 287.053 646.532 L 293.117 650.216 293.618 649.715 L 294.119 649.214 289.033 644.128 L 283.946 639.042 282.034 638.018 L 280.121 636.995 279.514 637.977 M 209.500 650.872 L 207.500 651.724 213 652.484 L 218.500 653.245 227 656.238 L 235.500 659.231 243.500 663.251 L 251.500 667.271 257.500 671.150 L 263.500 675.030 259.022 670.927 L 254.544 666.824 246.439 661.430 L 238.333 656.037 232.417 653.376 L 226.500 650.715 219 650.368 L 211.500 650.020 209.500 650.872 M 784.738 652.417 L 778.975 654.787 772.238 658.804 L 765.500 662.820 757.250 668.978 L 749 675.136 749 675.548 L 749 675.960 755.750 671.606 L 762.500 667.252 770.797 663.091 L 779.094 658.930 787.849 655.997 L 796.604 653.064 802.552 652.346 L 808.500 651.629 806 650.914 L 803.500 650.199 797 650.123 L 790.500 650.047 784.738 652.417 M 463.102 656.268 L 459.836 661.500 459.018 662.897 L 458.200 664.295 445.461 658.619 L 432.722 652.944 432.407 653.260 L 432.091 653.576 447.295 661.756 L 462.500 669.937 485 681.213 L 507.500 692.490 511.500 692.482 L 515.500 692.475 536 682.312 L 556.500 672.149 572.500 663.487 L 588.500 654.824 589.500 653.849 L 590.500 652.873 586 654.820 L 581.500 656.767 572 660.970 L 562.500 665.172 538.083 676.711 L 513.667 688.250 511.583 688.248 L 509.500 688.246 485.500 677.004 L 461.500 665.761 461.181 665.478 L 460.861 665.195 461.931 663.347 L 463 661.500 465.025 656.608 L 467.050 651.717 466.709 651.376 L 466.369 651.035 463.102 656.268 M 210.500 680.399 L 203.500 681.740 197.367 683.319 L 191.235 684.898 187.867 686.464 L 184.500 688.029 186.500 687.439 L 188.500 686.848 200 685.312 L 211.500 683.775 230 684.364 L 248.500 684.953 259 686.839 L 269.500 688.724 269.798 688.481 L 270.096 688.238 262.798 685.625 L 255.500 683.012 249.500 681.408 L 243.500 679.803 230.500 679.430 L 217.500 679.057 210.500 680.399 M 773.500 679.702 L 770.500 680.104 761.314 682.566 L 752.127 685.028 747.814 687.041 L 743.500 689.054 745.297 688.540 L 747.094 688.027 757.297 686.287 L 767.500 684.548 790.500 684.589 L 813.500 684.629 821 686.216 L 828.500 687.802 828.844 687.474 L 829.187 687.146 821.217 684.628 L 813.247 682.111 804.374 680.559 L 795.500 679.006 786 679.153 L 776.500 679.300 773.500 679.702 M 436.500 706.923 L 439.500 710.170 446.801 715.680 L 454.102 721.189 463.250 726.595 L 472.397 732 473.949 731.960 L 475.500 731.921 470.890 727.674 L 466.279 723.428 457.588 717.645 L 448.897 711.862 441.199 707.769 L 433.500 703.676 436.500 706.923 M 240.942 708.948 L 238.383 709.725 236.300 710.839 L 234.217 711.954 231.520 716.556 L 228.824 721.157 228.339 720.672 L 227.854 720.188 228.846 716.594 L 229.839 713 229.003 713 L 228.168 713 220.352 718.228 L 212.536 723.455 201.768 733.858 L 191 744.261 191 745.030 L 191 745.798 201.122 762.149 L 211.245 778.500 214.769 782.847 L 218.293 787.195 221.777 780.596 L 225.260 773.997 230.915 767.264 L 236.570 760.531 242.535 755.651 L 248.500 750.770 253.699 748.335 L 258.899 745.900 258.479 744.700 L 258.059 743.500 254.553 727.500 L 251.046 711.500 248.912 709.750 L 246.778 708 245.139 708.086 L 243.500 708.172 240.942 708.948 M 234.500 722.440 L 230.500 723.664 227.270 725.347 L 224.041 727.030 217.434 733.211 L 210.827 739.391 207.705 743.946 L 204.583 748.500 210.542 743.181 L 216.500 737.862 228 730.765 L 239.500 723.668 239.933 723.318 L 240.367 722.967 239.433 722.091 L 238.500 721.216 234.500 722.440 M 775.527 721.956 L 774.936 722.912 777.718 724.633 L 780.500 726.354 788.858 731.813 L 797.217 737.271 803.790 743.386 L 810.364 749.500 806.136 743.238 L 801.909 736.976 798.502 733.568 L 795.094 730.161 790.797 727.205 L 786.500 724.249 781.715 722.624 L 776.930 721 776.524 721 L 776.118 721 775.527 721.956 M 377.994 725.052 L 381.489 728.054 390.494 732.489 L 399.500 736.924 408.119 739.391 L 416.737 741.859 430.203 744.132 L 443.668 746.406 446.361 744.288 L 449.053 742.171 446.276 741.607 L 443.500 741.044 433.500 739.507 L 423.500 737.970 413 735.872 L 402.500 733.775 394.286 730.982 L 386.072 728.189 380.286 725.120 L 374.500 722.050 377.994 725.052 M 635 725.078 L 629.500 727.966 621.934 730.504 L 614.369 733.041 601.934 735.472 L 589.500 737.902 574.500 739.890 L 559.500 741.879 550.877 742.566 L 542.254 743.254 542.766 745.212 L 543.278 747.169 544.615 747.683 L 545.953 748.196 561.226 746.576 L 576.500 744.955 588.941 742.890 L 601.381 740.825 609.941 738.360 L 618.500 735.894 626.500 732.014 L 634.500 728.134 638 725.107 L 641.500 722.081 641 722.136 L 640.500 722.190 635 725.078 M 502.366 726.977 L 494.500 730.953 490.186 734.996 L 485.872 739.038 483.429 744.375 L 480.985 749.712 479.893 755.606 L 478.801 761.500 479.572 772 L 480.344 782.500 481.606 774.041 L 482.868 765.582 483.949 761.288 L 485.030 756.994 487.092 751.484 L 489.154 745.973 491.940 747.957 L 494.726 749.941 495.363 749.304 L 496 748.667 496 746.219 L 496 743.772 498.189 739.878 L 500.378 735.984 505.689 732.326 L 511 728.668 511 726.834 L 511 725 512.096 725 L 513.191 725 516.096 727.068 L 519 729.136 519 728.604 L 519 728.072 515.268 725.536 L 511.536 723 510.884 723 L 510.232 723 502.366 726.977 M 457.319 743.856 L 452.138 745.646 447.606 749.360 L 443.074 753.074 439.683 757.287 L 436.291 761.500 430.995 769.500 L 425.699 777.500 421.219 782.813 L 416.738 788.125 410.119 793.460 L 403.500 798.796 397.500 801.780 L 391.500 804.764 390 805.303 L 388.500 805.842 390.028 805.921 L 391.556 806 398.528 802.639 L 405.500 799.278 411.608 794.661 L 417.717 790.043 424.108 783.251 L 430.500 776.460 436.642 767.468 L 442.784 758.476 447.735 753.845 L 452.686 749.214 455.606 747.704 L 458.526 746.194 464.263 744.526 L 470 742.858 470 742.429 L 470 742 466.250 742.033 L 462.500 742.065 457.319 743.856 M 508.573 749.176 L 508.152 750.500 506.995 754.261 L 505.838 758.022 502.669 760.373 L 499.500 762.724 496.101 763.862 L 492.702 765 490.351 765 L 488 765 488 767.500 L 488 770 491.365 770 L 494.730 770 497.204 771.946 L 499.679 773.892 502.275 779.696 L 504.872 785.500 507.606 798.750 L 510.341 812 511.109 812 L 511.877 812 512.551 807.250 L 513.225 802.500 514.654 796 L 516.084 789.500 518.134 783.217 L 520.185 776.933 522.682 773.967 L 525.178 771 527.007 771 L 528.836 771 530.418 770.393 L 532 769.786 532 767.393 L 532 765 528.696 765 L 525.392 765 520.946 762.171 L 516.500 759.342 515.084 757.618 L 513.668 755.895 513.069 752.208 L 512.470 748.522 510.732 748.187 L 508.994 747.852 508.573 749.176 M 472.454 770.500 L 472.744 783.500 474.484 788.304 L 476.225 793.108 476.572 792.762 L 476.918 792.415 475.391 786.567 L 473.864 780.718 473.014 769.109 L 472.163 757.500 472.454 770.500 M 376 765.987 L 378.500 767.982 387.500 772.464 L 396.500 776.946 404.760 779.137 L 413.020 781.328 415.510 779.995 L 418 778.662 418 777.978 L 418 777.293 411.184 776.167 L 404.368 775.042 395.650 772.515 L 386.932 769.989 380.216 766.991 L 373.500 763.992 376 765.987 M 508 765.500 L 506.755 767 505.378 767 L 504 767 504 767.533 L 504 768.066 506.475 772.951 L 508.950 777.835 509.621 782.032 L 510.292 786.229 511.018 784.865 L 511.744 783.500 512.445 779.500 L 513.147 775.500 515.168 772.032 L 517.190 768.563 514.345 766.287 L 511.500 764.010 510.372 764.005 L 509.245 764 508 765.500 M 634.162 767.129 L 627.825 770.085 618.662 772.547 L 609.500 775.009 596 776.965 L 582.500 778.921 565.586 780.503 L 548.672 782.085 547.836 782.601 L 547 783.118 547 785.065 L 547 787.012 555.750 786.437 L 564.500 785.863 577.695 784.432 L 590.890 783.002 601.327 780.987 L 611.765 778.973 617.551 776.982 L 623.338 774.991 630.919 770.925 L 638.500 766.858 639.964 765.429 L 641.429 764 640.964 764.086 L 640.500 764.172 634.162 767.129 M 459.615 767.465 L 458 769.930 458 770.465 L 458 771 463.500 771 L 469 771 469 768 L 469 765 465.115 765 L 461.230 765 459.615 767.465 M 460.607 783.582 L 460 785.164 460 786.082 L 460 787 462.750 786.989 L 465.500 786.978 469.127 786.378 L 472.755 785.778 472.261 783.889 L 471.767 782 466.490 782 L 461.214 782 460.607 783.582 M 440.651 799.391 L 438.065 802.782 431.861 807.445 L 425.657 812.109 417.579 816.003 L 409.500 819.898 401 822.473 L 392.500 825.048 397.492 824.426 L 402.485 823.805 410.722 821.037 L 418.960 818.269 424.665 814.884 L 430.370 811.500 436.109 805.826 L 441.849 800.151 442.959 798.076 L 444.070 796 443.654 796 L 443.237 796 440.651 799.391 M 447.500 806.044 L 442.500 812.051 439.250 811.480 L 436 810.909 436 811.367 L 436 811.825 443.250 814.577 L 450.500 817.328 471.500 825.988 L 492.500 834.649 502.047 837.974 L 511.593 841.300 527.547 835.079 L 543.500 828.857 563.738 820.750 L 583.976 812.642 583.562 812.229 L 583.148 811.815 577.670 813.407 L 572.192 815 571.121 815 L 570.050 815 570.650 812 L 571.250 809 570.811 809 L 570.372 809 567.015 813.480 L 563.658 817.961 562.232 816.778 L 560.806 815.594 559.919 817.180 L 559.031 818.766 548.766 822.506 L 538.500 826.246 525.500 831.193 L 512.500 836.140 510 835.665 L 507.500 835.189 503.718 833.762 L 499.936 832.336 499.092 831.418 L 498.248 830.500 496 823.500 L 493.752 816.500 493.018 815.692 L 492.283 814.883 491.044 821.192 L 489.804 827.500 489.386 828.180 L 488.968 828.860 482.734 826.066 L 476.500 823.271 463.750 818.505 L 451 813.738 451.060 811.619 L 451.119 809.500 451.901 804.750 L 452.683 800 452.591 800.019 L 452.500 800.037 447.500 806.044 M 514.739 813.689 L 508.978 817.312 509.474 817.807 L 509.970 818.303 515.485 814.641 L 521 810.980 521 810.490 L 521 810 520.750 810.033 L 520.500 810.067 514.739 813.689 M 471 858.858 L 490.500 868.571 500.324 872.876 L 510.148 877.180 512.687 876.543 L 515.226 875.905 525.863 871.094 L 536.500 866.282 553.759 857.983 L 571.018 849.684 570.631 849.298 L 570.245 848.912 556.372 854.343 L 542.500 859.774 527.283 866.387 L 512.066 873 511.137 873 L 510.208 873 493.854 865.890 L 477.500 858.781 465.084 853.890 L 452.667 849 452.084 849.072 L 451.500 849.145 471 858.858 M 458 892.143 L 465.500 896.259 483.500 904.745 L 501.500 913.231 501.885 913.583 L 502.269 913.936 500.961 917.093 L 499.654 920.251 495.287 926.182 L 490.921 932.112 492.711 931.151 L 494.500 930.190 501.344 923.095 L 508.188 916 511.049 916 L 513.910 916 523.205 911.927 L 532.500 907.854 552.251 898.261 L 572.002 888.669 571.664 888.331 L 571.327 887.993 554.413 894.894 L 537.500 901.795 525.500 906.983 L 513.500 912.172 510.500 912.163 L 507.500 912.155 494 905.988 L 480.500 899.821 466.114 893.911 L 451.729 888 451.114 888.014 L 450.500 888.028 458 892.143 M 546.974 942.693 L 538.500 947.273 525.201 954.636 L 511.901 962 510.982 962 L 510.062 962 494.281 953.541 L 478.500 945.083 475 943.643 L 471.500 942.202 467.768 943.701 L 464.036 945.199 465.057 947.107 L 466.078 949.014 473.289 952.623 L 480.500 956.233 495.656 965.116 L 510.813 973.998 529.599 962.749 L 548.386 951.500 552.249 945.139 L 556.112 938.778 555.779 938.446 L 555.447 938.114 546.974 942.693"
     stroke="none"
     fill="currentColor"
     fill-rule="evenodd"
     id="path1"
     inkscape:label="path1" /></svg>
